#N canvas 582 205 450 331 10;
#X declare -lib mrpeach;
#X obj 336 18 import mrpeach;
#X obj 228 -32 udpreceive 3333;
#X msg 263 75 disconnect;
#X obj 227 179 udpsend;
#X obj 260 22 loadbang;
#X obj 158 178 udpsend;
#X msg 105 85 disconnect;
#X obj 56 31 loadbang;
#X msg 56 57 connect localhost 3334;
#X msg 259 48 connect localhost 3335;
#X obj 133 17 print TUIO;
#X obj 133 -5 unpackOSC;
#X connect 1 0 3 0;
#X connect 1 0 5 0;
#X connect 1 0 11 0;
#X connect 2 0 3 0;
#X connect 4 0 9 0;
#X connect 6 0 5 0;
#X connect 7 0 8 0;
#X connect 8 0 5 0;
#X connect 9 0 3 0;
#X connect 11 0 10 0;
