#N canvas 391 170 450 331 10;
#X declare -lib mrpeach;
#X obj 336 18 import mrpeach;
#X msg 263 75 disconnect;
#X obj 227 179 udpsend;
#X obj 260 22 loadbang;
#X obj 158 178 udpsend;
#X msg 105 85 disconnect;
#X obj 56 31 loadbang;
#X obj 133 17 print TUIO;
#X obj 133 -5 unpackOSC;
#X obj 228 -32 udpreceive 3336;
#X msg 259 48 connect localhost 3334;
#X msg 56 57 connect localhost 3333;
#X connect 1 0 2 0;
#X connect 3 0 10 0;
#X connect 5 0 4 0;
#X connect 6 0 11 0;
#X connect 8 0 7 0;
#X connect 9 0 2 0;
#X connect 9 0 4 0;
#X connect 9 0 8 0;
#X connect 10 0 2 0;
#X connect 11 0 4 0;
